<?xml version="1.0" encoding="utf-8"?>
<!-- Generator: Adobe Illustrator 16.0.0, SVG Export Plug-In . SVG Version: 6.00 Build 0)  -->
<!DOCTYPE svg PUBLIC "-//W3C//DTD SVG 1.1//EN" "http://www.w3.org/Graphics/SVG/1.1/DTD/svg11.dtd">
<svg xmlns="http://www.w3.org/2000/svg" xmlns:xlink="http://www.w3.org/1999/xlink" version="1.1" id="Full_2_" x="0px" y="0px" width="32px" height="32px" viewBox="0 0 32 32" fill="#ffffff" style="enable-background:new 0 0 32 32;" xml:space="preserve">
<path d="M17.997,18c0,1.103-0.896,2-1.997,2c-1.101,0-1.997-0.897-1.997-2s0.896-2,1.997-2C17.102,16,17.997,16.897,17.997,18z   M25,3v4h1v23c0,0-14.607,0-17,0c-1.657,0-3-1.343-3-3C6,24.657,6,5,6,5c0-1.657,1.343-3,3-3c0.843,0,17,0,17,0v1H25z M22,18  c0-3.545-2.691-6-6-6s-6,2.691-6,6s2.691,6,6,6c1.604,0,3.11-0.624,4.243-1.757l-0.707-0.707C18.592,22.48,17.336,23,16,23  c-2.757,0-5-2.243-5-5s2.243-5,5-5s5,2.013,5,5c0,1.25-0.302,2-0.975,2C19.152,20,19,19.141,19,18v-3h-1v0.774  C17.469,15.295,16.77,15,16,15c-1.654,0-3,1.346-3,3s1.346,3,3,3c0.95,0,1.787-0.452,2.334-1.146C18.702,20.664,19.332,21,20.021,21  C21.251,21,22,19.714,22,18z M24,3c0,0-13.562,0-15,0C7.896,3,7,3.896,7,5s0.896,2,2,2s15,0,15,0V3z"/>
</svg>
