<?xml version="1.0" encoding="utf-8"?>
<!-- Generator: Adobe Illustrator 16.0.0, SVG Export Plug-In . SVG Version: 6.00 Build 0)  -->
<svg xmlns="http://www.w3.org/2000/svg" xmlns:xlink="http://www.w3.org/1999/xlink" version="1.1" id="Capa_1" x="0px" y="0px" width="32px" height="32px" viewBox="0 0 32 32" style="enable-background:new 0 0 32 32;" xml:space="preserve">
<path d="M29,20.5c0,2.77-2.94,3.5-4.5,3.5h-16C6.94,24,4,23.27,4,20.5c0-1.88,1.13-4.99,4.14-7.13c0.05,0.37,0.1,0.75,0.16,1.12  C8.61,16.31,9.24,18,10.5,18c1.75,0,2.28-3.28,2.44-5.63c0.02-0.37,0.04-0.72,0.04-1.03c0.33-0.07,0.68-0.13,1.03-0.18  c0,0.3,0.02,0.64,0.03,1.01C14.19,14.54,14.7,18,16.5,18s2.31-3.46,2.46-5.83c0.01-0.37,0.03-0.71,0.03-1.01  c0.35,0.05,0.689,0.11,1.02,0.17c0.01,0.31,0.021,0.66,0.05,1.04C20.22,14.72,20.75,18,22.5,18c1.26,0,1.89-1.69,2.2-3.51  c0.06-0.37,0.109-0.75,0.16-1.12C27.87,15.51,29,18.62,29,20.5z M21.1,12.64C21.3,14.97,21.82,17,22.5,17  c0.56,0,1.01-1.37,1.27-3.16c0.04-0.35,0.091-0.71,0.12-1.08c-0.83-0.48-1.779-0.89-2.859-1.18c0.01,0.36,0.04,0.72,0.06,1.06H21.1z   M16.5,17c0.73,0,1.29-2.38,1.45-4.95c0.02-0.33,0.04-0.66,0.04-0.99C17.51,11.02,17.02,11,16.5,11c-0.52,0-1.01,0.02-1.49,0.06  c0,0.33,0.02,0.66,0.04,0.99C15.21,14.62,15.77,17,16.5,17z M10.5,17c0.68,0,1.2-2.03,1.4-4.36c0.03-0.34,0.06-0.7,0.07-1.06  c-1.08,0.29-2.03,0.7-2.86,1.18c0.03,0.37,0.08,0.73,0.12,1.08C9.49,15.63,9.94,17,10.5,17z"/>
</svg>
