<?xml version="1.0" encoding="utf-8"?>
<!-- Generator: Adobe Illustrator 16.0.0, SVG Export Plug-In . SVG Version: 6.00 Build 0)  -->
<!DOCTYPE svg PUBLIC "-//W3C//DTD SVG 1.1//EN" "http://www.w3.org/Graphics/SVG/1.1/DTD/svg11.dtd">
<svg xmlns="http://www.w3.org/2000/svg" xmlns:xlink="http://www.w3.org/1999/xlink" version="1.1" id="icon" x="0px" y="0px" width="32px" height="32px" viewBox="0 0 32 32" style="enable-background:new 0 0 32 32;" xml:space="preserve">
<path d="M27,8h-5V5h-1v3H11V5h-1v3H5c-1.1,0-2,0.9-2,2v15c0,1.1,0.9,2,2,2h22c1.1,0,2-0.9,2-2V10C29,8.9,28.1,8,27,8z M15,23h-1  v-6.57l-1.29,1.28L12,17.01l1.99-2V15H15V23z M20,22v1h-4v-1c0.37-0.54,0.7-1.03,1-1.47c1.32-1.94,2-2.851,2-3.53c0-0.55-0.45-1-1-1  s-1,0.45-1,1h-1c0-1.1,0.9-2,2-2s2,0.9,2,2c0,0.97-0.66,1.86-2.17,4.09c-0.2,0.28-0.4,0.59-0.62,0.91H20z M28,13H4v-3  c0-0.55,0.45-1,1-1h5v1h1V9h10v1h1V9h5c0.55,0,1,0.45,1,1V13z"/>
</svg>
