<?xml version="1.0" encoding="utf-8"?>
<!-- Generator: Adobe Illustrator 16.0.0, SVG Export Plug-In . SVG Version: 6.00 Build 0)  -->
<!DOCTYPE svg PUBLIC "-//W3C//DTD SVG 1.1//EN" "http://www.w3.org/Graphics/SVG/1.1/DTD/svg11.dtd">
<svg xmlns="http://www.w3.org/2000/svg" xmlns:xlink="http://www.w3.org/1999/xlink" version="1.1" id="icon" x="0px" y="0px" width="32px" height="32px" viewBox="0 0 32 32" style="enable-background:new 0 0 32 32;" xml:space="preserve">
<path d="M27,8h-5V5h-1v3H11V5h-1v3H5c-1.104,0-2,0.896-2,2v15c0,1.104,0.896,2,2,2h22c1.104,0,2-0.896,2-2V10  C29,8.896,28.104,8,27,8z M17,23h-1v-6.324l-1.631,1.631L13.662,17.6l2.5-2.5L17,15.438V23z M28,13H4v-3c0-0.553,0.448-1,1-1h5v1h1  V9h10v1h1V9h5c0.553,0,1,0.447,1,1V13z"/>
</svg>
