<?xml version="1.0" encoding="utf-8"?>
<!-- Generator: Adobe Illustrator 16.0.0, SVG Export Plug-In . SVG Version: 6.00 Build 0)  -->
<!DOCTYPE svg PUBLIC "-//W3C//DTD SVG 1.1//EN" "http://www.w3.org/Graphics/SVG/1.1/DTD/svg11.dtd">
<svg version="1.1" id="Full_2_" xmlns="http://www.w3.org/2000/svg" xmlns:xlink="http://www.w3.org/1999/xlink" x="0px" y="0px"
	 width="32px" height="32px" viewBox="0 0 32 32" style="enable-background:new 0 0 32 32;" xml:space="preserve">
<path d="M30,27H13c0-3.84,2.448-7.058,6-7.978l2.5,2.071l2.5-2.071C27.552,19.942,30,23.16,30,27z M21.5,18
	c2.485,0,4.5-2.015,4.5-4.5S23.985,9,21.5,9S17,11.015,17,13.5S19.015,18,21.5,18z M17.68,18.41c-1.069-1.65-2.7-2.88-4.68-3.39
	l-2.5,2.07L8,15.02C4.45,15.94,2,19.16,2,23h10.86C13.81,20.91,15.5,19.26,17.68,18.41z M10.5,14c2.485,0,4.5-2.015,4.5-4.5
	S12.985,5,10.5,5S6,7.015,6,9.5S8.015,14,10.5,14z"/>
</svg>
