<?xml version="1.0" encoding="utf-8"?>
<!-- Generator: Adobe Illustrator 16.0.0, SVG Export Plug-In . SVG Version: 6.00 Build 0)  -->
<!DOCTYPE svg PUBLIC "-//W3C//DTD SVG 1.1//EN" "http://www.w3.org/Graphics/SVG/1.1/DTD/svg11.dtd">
<svg version="1.1" id="Full_2_" xmlns="http://www.w3.org/2000/svg" xmlns:xlink="http://www.w3.org/1999/xlink" x="0px" y="0px"
	 width="32px" height="32px" viewBox="0 0 32 32" style="enable-background:new 0 0 32 32;" xml:space="preserve">
<path d="M25.5,2H6.45C5.6,2,4,2.52,4,4.5v23C4,29.48,5.64,30,6.5,30h15c1.64,0,2.28-1.13,2.45-2h1.55c0.86,0,2.5-0.52,2.5-2.5v-21
	C28,2.52,26.36,2,25.5,2z M14.03,24.97c-3.86,0-7-3.14-7-7c0-3.87,3.14-7,7-7c3.871,0,7,3.13,7,7
	C21.03,21.83,17.9,24.97,14.03,24.97z M25.5,27H24V8.5C24,6.52,22.36,6,21.5,6h-15C6.25,6,5,5.91,5,4.5S6.21,3,6.45,3H25.5
	C25.75,3,27,3.09,27,4.5v21C27,26.91,25.75,27,25.5,27z M26,6.5V25h-1V6.5C25,5.09,23.75,5,23.5,5H7V4h16.5C24.36,4,26,4.52,26,6.5z
	 M14.03,11.97c-3.31,0-6,2.69-6,6c0,3.311,2.69,6,6,6c3.31,0,6-2.689,6-6C20.03,14.66,17.34,11.97,14.03,11.97z M12.5,21.21
	l-2.35-2.36l0.7-0.699l1.65,1.64l4.65-4.64l0.699,0.7L12.5,21.21z"/>
</svg>
