<?xml version="1.0" encoding="utf-8"?>
<!-- Generator: Adobe Illustrator 16.0.0, SVG Export Plug-In . SVG Version: 6.00 Build 0)  -->
<!DOCTYPE svg PUBLIC "-//W3C//DTD SVG 1.1//EN" "http://www.w3.org/Graphics/SVG/1.1/DTD/svg11.dtd">
<svg version="1.1" id="Full_2_" xmlns="http://www.w3.org/2000/svg" xmlns:xlink="http://www.w3.org/1999/xlink" x="0px" y="0px"
	 width="32px" height="32px" viewBox="0 0 32 32" style="enable-background:new 0 0 32 32;" xml:space="preserve">
<path d="M15.174,25.946c-0.066-0.022-1.619-0.622-4.727-2.612c-4.182-2.678-1.947-4.761-5.146-10.03
	c-0.379-0.624-0.44-1.226-0.028-1.743l0.064-0.075c0.546-0.599,1.471-0.729,2.104-0.211c1.933,1.581,2.558,5.226,3.997,5.67
	c0.254,0.079,0.294,0.023,0.367-0.033c0.071-0.057,0.179-0.36,0.179-0.911V2.5c0-1,0.969-1.5,1.5-1.5c0.524,0,1.5,0.5,1.5,1.5
	C14.984,2.525,15,9,15,9.5v1c0,0.276,0.224,0.5,0.5,0.5s0.5-0.224,0.5-0.5V8.375C16.082,7.462,17.007,7,17.484,7
	c0.5,0,1.5,0.5,1.5,1.5L19,8.505V10.5c0,0.276,0.224,0.5,0.5,0.5s0.5-0.224,0.5-0.5V8.844C20.047,8.563,20.234,8,20.984,8
	c0.962,0,1,1,1,1L22,9.06V11c0,0.276,0.224,0.5,0.5,0.5S23,11.276,23,11V9.669C23.15,9.572,23.313,9.5,23.484,9.5
	c0.95,0,1.332,0.928,1.501,1.937c0.125,0.754,0.251,1.405,0.368,2.015c0.346,1.794,0.645,3.344,0.645,6.049
	c0,3.87-2.198,6.113-2.292,6.207L23.412,26h-8.08L15.174,25.946z M14.984,28h9v-1h-9V28z"/>
</svg>
