<?xml version="1.0" encoding="utf-8"?>
<!-- Generator: Adobe Illustrator 16.0.0, SVG Export Plug-In . SVG Version: 6.00 Build 0)  -->
<!DOCTYPE svg PUBLIC "-//W3C//DTD SVG 1.1//EN" "http://www.w3.org/Graphics/SVG/1.1/DTD/svg11.dtd">
<svg version="1.1" id="Full_2_" xmlns="http://www.w3.org/2000/svg" xmlns:xlink="http://www.w3.org/1999/xlink" x="0px" y="0px"
	 width="32px" height="32px" viewBox="0 0 32 32" style="enable-background:new 0 0 32 32;" xml:space="preserve">
<path d="M29,6v20H4v-5.3l5.12-5.12C9.51,15.85,9.99,16,10.5,16c0.44,0,0.85-0.11,1.21-0.31l2.82,3.28C14.2,19.39,14,19.92,14,20.5
	c0,1.38,1.12,2.5,2.5,2.5s2.5-1.12,2.5-2.5c0-0.51-0.15-0.99-0.42-1.38L25,12.7V16h1v-5h-5v1h3.3l-6.42,6.42
	C17.49,18.15,17.01,18,16.5,18c-0.44,0-0.85,0.11-1.21,0.31l-2.82-3.28C12.8,14.61,13,14.08,13,13.5c0-1.38-1.12-2.5-2.5-2.5
	S8,12.12,8,13.5c0,0.51,0.15,0.99,0.42,1.38L4,19.3V6H29z M10.5,15c0.829,0,1.5-0.671,1.5-1.5S11.329,12,10.5,12S9,12.671,9,13.5
	S9.671,15,10.5,15z M18,20.5c0-0.828-0.672-1.5-1.5-1.5c-0.829,0-1.5,0.672-1.5,1.5s0.671,1.5,1.5,1.5C17.328,22,18,21.328,18,20.5z
	"/>
</svg>
