<?xml version="1.0" encoding="utf-8"?>
<!-- Generator: Adobe Illustrator 16.0.0, SVG Export Plug-In . SVG Version: 6.00 Build 0)  -->
<!DOCTYPE svg PUBLIC "-//W3C//DTD SVG 1.1//EN" "http://www.w3.org/Graphics/SVG/1.1/DTD/svg11.dtd">
<svg version="1.1" id="Capa_1" xmlns="http://www.w3.org/2000/svg" xmlns:xlink="http://www.w3.org/1999/xlink" x="0px" y="0px"
	 width="32px" height="32px" viewBox="0 0 32 32" style="enable-background:new 0 0 32 32;" xml:space="preserve">
<path d="M24,22h4v1.99C27.99,24.45,27.81,25,27,25h-3V22z M19,22h4v3h-4V22z M20,24h2v-1h-2V24z M14,25h4v-3h-4V25z M9,25h4v-3H9V25
	z M4,24c0,0.81,0.55,0.99,1.01,1H8v-3H4V24z M4,18h4v3H4V18z M5,20h2v-1H5V20z M9,21h4v-3H9V21z M14,21h4v-3h-4V21z M19,21h4v-3h-4
	V21z M24,21h4v-3h-4V21z M24,14h4v3h-4V14z M25,16h2v-1h-2V16z M19,14h4v3h-4V14z M20,16h2v-1h-2V16z M14,14h4v3h-4V14z M15,16h2v-1
	h-2V16z M9,14h4v3H9V14z M10,16h2v-1h-2V16z M4,17h4v-3H4V17z M4,10h4v3H4V10z M5,12h2v-1H5V12z M9,10h4v3H9V10z M10,12h2v-1h-2V12z
	 M14,13h4v-3h-4V13z M19,13h4v-3h-4V13z M24,10h4v3h-4V10z M25,12h2v-1h-2V12z M26.99,6H24v3h4V7C28,6.2,27.45,6.01,26.99,6z M19,9
	h4V6h-4V9z M14,9h4V6h-4V9z M9,9h4V6H9V9z M4,7.01V9h4V6H5C4.19,6,4.01,6.55,4,7.01z"/>
</svg>
