<?xml version="1.0" encoding="utf-8"?>
<!-- Generator: Adobe Illustrator 16.0.0, SVG Export Plug-In . SVG Version: 6.00 Build 0)  -->
<!DOCTYPE svg PUBLIC "-//W3C//DTD SVG 1.1//EN" "http://www.w3.org/Graphics/SVG/1.1/DTD/svg11.dtd">
<svg xmlns="http://www.w3.org/2000/svg" xmlns:xlink="http://www.w3.org/1999/xlink" version="1.1" id="Full_2_" x="0px" y="0px" width="32px" height="32px" viewBox="0 0 32 32" style="enable-background:new 0 0 32 32;" xml:space="preserve">
<path d="M14.58,23.41l1.33-3.98l2.64,2.641L14.58,23.41z M28.73,9.27C28.3,8.83,27.86,8.62,27.4,8.62c-0.811,0-1.49,0.64-1.5,0.649  L25.73,9.45l2.819,2.819h0.01C28.82,12.01,30.06,10.59,28.73,9.27z M24.32,10.86l2.819,2.819l0.71-0.699l-2.83-2.83L24.32,10.86z   M16.54,18.64l2.82,2.82l7.069-7.07L23.61,11.57L16.54,18.64z M19.39,22.85l-0.029,0.03l-0.021-0.02L13,25l1.67-5H9v-1h6l0.12-0.36  L16.76,17H9v-1h8.76l2-2H9v-1h11.76l2-2H9v-1h14.76l1.44-1.44c0,0,0.31-0.31,0.8-0.569V7c0-2-2-2-2-2H8C6,5,6,7,6,7v18c0,2,2,2,2,2  h16c2,0,2-2,2-2v-8.76l-5.93,5.93L19.39,22.85z"/>
</svg>
