<?xml version="1.0" encoding="utf-8"?>
<!-- Generator: Adobe Illustrator 16.0.0, SVG Export Plug-In . SVG Version: 6.00 Build 0)  -->
<svg xmlns="http://www.w3.org/2000/svg" xmlns:xlink="http://www.w3.org/1999/xlink" version="1.1" id="2653599372_Outlined_2__grid" x="0px" y="0px" width="32px" height="32px" viewBox="0 0 32 32" enable-background="new 0 0 32 32" xml:space="preserve">
<g>
	<g>
		<path d="M25,4H7C5,4,5,6,5,6v20c0,2,2,2,2,2h18c2,0,2-2,2-2V6C27,4,25,4,25,4z M23,22H9V11.53c0.05,0.34,0.16,0.71,0.35,1.12    c0.39,0.85,1.04,1.67,1.48,2.11c0.36,0.36,0.86,0.55,1.41,0.55c0.6,0,1.22-0.23,1.76-0.63l1.31,1.31l-4.16,4.16    c-0.2,0.189-0.2,0.51,0,0.699C11.24,20.95,11.37,21,11.5,21s0.26-0.05,0.35-0.15l4.16-4.159l4.16,4.159    C20.27,20.95,20.4,21,20.53,21c0.12,0,0.25-0.05,0.35-0.15c0.19-0.189,0.19-0.51,0-0.699l-4.16-4.16l1.04-1.04    c0.391,0.28,0.82,0.46,1.26,0.53c0.11,0.01,0.221,0.02,0.32,0.02c0.51,0,0.98-0.18,1.311-0.51l2.199-2.2    c0.101-0.1,0.15-0.23,0.15-0.35c0-0.13-0.05-0.26-0.15-0.36c-0.189-0.2-0.51-0.2-0.699,0l-2.2,2.2    c-0.24,0.24-0.601,0.23-0.79,0.21c-0.22-0.04-0.46-0.13-0.67-0.27l2.899-2.9c0.19-0.19,0.19-0.51,0-0.71    c-0.199-0.19-0.51-0.19-0.71,0l-2.899,2.9c-0.34-0.53-0.38-1.13-0.061-1.46l2.2-2.2c0.2-0.19,0.2-0.51,0-0.7    c-0.2-0.2-0.51-0.2-0.71,0l-2.2,2.2c-0.7,0.7-0.66,1.92,0.04,2.89l-1.04,1.04l-1.31-1.31c0.8-1.05,0.85-2.4,0.09-3.17    C14.32,10.34,12.64,9,11.1,9C10.5,9,10,9.2,9.61,9.59C9.34,9.86,9.09,10.24,9,10.76V8h14V22z"/>
	</g>
</g>
</svg>
