<?xml version="1.0" encoding="utf-8"?>
<!-- Generator: Adobe Illustrator 16.0.0, SVG Export Plug-In . SVG Version: 6.00 Build 0)  -->
<!DOCTYPE svg PUBLIC "-//W3C//DTD SVG 1.1//EN" "http://www.w3.org/Graphics/SVG/1.1/DTD/svg11.dtd">
<svg version="1.1" id="Outlined_2_" xmlns="http://www.w3.org/2000/svg" xmlns:xlink="http://www.w3.org/1999/xlink" x="0px"
	 y="0px" width="32px" height="32px" viewBox="0 0 32 32" enable-background="new 0 0 32 32" xml:space="preserve">
<path d="M15.5,4C8.6,4,3,9.6,3,16.5C3,23.4,8.6,29,15.5,29C22.4,29,28,23.4,28,16.5C28,9.6,22.4,4,15.5,4z M18.35,14.35l-2.5,2.5
	C15.76,16.95,15.63,17,15.5,17s-0.26-0.05-0.35-0.15c-0.2-0.189-0.2-0.51,0-0.699l2.5-2.5c0.189-0.2,0.51-0.2,0.699,0
	C18.55,13.84,18.55,14.16,18.35,14.35z M22.24,23.2c-0.12,0.12-0.25,0.24-0.38,0.359l-2.21-2.21l0.699-0.699l1.5,1.5
	C23.09,20.77,23.87,18.97,23.98,17H22v-1h1.99c-0.12-1.97-0.91-3.77-2.141-5.15l-1.5,1.5l-0.699-0.7l1.5-1.5
	C19.77,8.92,17.97,8.13,16,8.01V10h-1V8.01c-1.97,0.12-3.77,0.91-5.15,2.14l1.5,1.5l-0.7,0.7l-1.5-1.5
	C7.92,12.23,7.13,14.03,7.01,16H9v1H7.03c0.1,1.97,0.88,3.77,2.12,5.15l1.5-1.5l0.7,0.699l-1.49,1.5L9.15,23.57
	c-0.02-0.021-0.04-0.04-0.06-0.061c-0.14-0.12-0.27-0.25-0.39-0.38C7.02,21.42,6,19.08,6,16.5C6,11.25,10.25,7,15.5,7
	s9.5,4.25,9.5,9.5C25,19.11,23.95,21.48,22.24,23.2z"/>
</svg>
