<?xml version="1.0" encoding="utf-8"?>
<!-- Generator: Adobe Illustrator 16.0.0, SVG Export Plug-In . SVG Version: 6.00 Build 0)  -->
<!DOCTYPE svg PUBLIC "-//W3C//DTD SVG 1.1//EN" "http://www.w3.org/Graphics/SVG/1.1/DTD/svg11.dtd">
<svg version="1.1" id="Full_2_" xmlns="http://www.w3.org/2000/svg" xmlns:xlink="http://www.w3.org/1999/xlink" x="0px" y="0px"
	 width="32px" height="32px" viewBox="0 0 32 32" style="enable-background:new 0 0 32 32;" xml:space="preserve">
<path d="M7.955,19H4.551C3.641,17.539,3.09,15.832,3,14h4.004C7.054,16.063,7.424,17.699,7.955,19z M7.955,8H4.551
	C3.641,9.461,3.09,11.168,3,13h3.99C7.036,11.087,7.484,9.152,7.955,8z M13.99,20v1.15L15.14,20H13.99z M14,14v5h2.14l2.62-2.62
	C18.9,15.66,18.98,14.87,19,14H14z M19.92,15.22L21.14,14H20C19.99,14.43,19.97,14.83,19.92,15.22z M20,13h2.14l1.15-1.15
	c0.04-0.04,0.22-0.21,0.51-0.41c-0.24-1.24-0.7-2.4-1.35-3.44h-3.41C19.58,9.3,19.95,10.94,20,13z M16.522,4.481
	C17.233,5.072,17.954,5.89,18.555,7h3.193c-1.832-2.321-4.615-3.85-7.758-4v0.101c0.53,0.16,1.512,0.541,2.522,1.371L16.522,4.481z
	 M13.99,4.151V7h3.414C16.263,5.208,14.791,4.441,13.99,4.151z M17.944,8H13.99v5h5.005C18.945,10.878,18.524,9.251,17.944,8z
	 M12.99,8H9.036C8.465,9.251,8.04,10.878,7.99,13h5V8z M12.99,4.132C12.18,4.422,10.707,5.178,9.566,7h3.424V4.132z M10.477,4.481
	l0.011-0.01c1.011-0.83,1.972-1.201,2.503-1.361V3C9.847,3.15,7.084,4.679,5.252,7h3.193C9.046,5.89,9.766,5.072,10.477,4.481z
	 M12.5,23.71c-0.54-0.22-1.26-0.58-2.01-1.2l-0.01-0.01c-0.71-0.59-1.43-1.39-2.03-2.5h-3.2c1.72,2.18,4.26,3.66,7.17,3.95
	L12.5,23.71z M12.99,14H8.005c0.05,2.122,0.471,3.749,1.051,5h3.935V14z M12.82,22.76l0.17,0.07v-0.58V20H9.6
	C10.66,21.67,12,22.43,12.82,22.76z M18.865,26.171l7.071-7.071l-4.242-4.242l-7.072,7.07L18.865,26.171z M23.108,13.443
	l-0.707,0.707l4.242,4.242l0.707-0.707L23.108,13.443z M28.058,12.736c-2.121-2.122-4.066-0.178-4.066-0.178l-0.176,0.178
	l4.242,4.242C28.058,16.979,30.179,14.857,28.058,12.736z M14.92,29h13.87v-1H17.88L14.92,29z M27,26h-6.55l-1,1H27V26z
	 M13.915,22.635L11.794,29l6.343-2.144L13.915,22.635z"/>
</svg>
