<?xml version="1.0" encoding="utf-8"?>
<!-- Generator: Adobe Illustrator 16.0.0, SVG Export Plug-In . SVG Version: 6.00 Build 0)  -->
<!DOCTYPE svg PUBLIC "-//W3C//DTD SVG 1.1//EN" "http://www.w3.org/Graphics/SVG/1.1/DTD/svg11.dtd">
<svg version="1.1" id="Full_2_" xmlns="http://www.w3.org/2000/svg" xmlns:xlink="http://www.w3.org/1999/xlink" x="0px" y="0px"
	 width="32px" height="32px" viewBox="0 0 32 32" style="enable-background:new 0 0 32 32;" xml:space="preserve">
<path d="M20.721,22H16v-6h5.977C21.915,18.406,21.422,20.38,20.721,22z M9.161,9H4.844c-1.077,1.761-1.726,3.806-1.813,6h4.991
	C8.078,12.611,8.521,10.635,9.161,9z M20.721,9H16v6h5.977C21.915,12.594,21.422,10.62,20.721,9z M8.022,16H3.031
	c0.087,2.194,0.736,4.238,1.813,6h4.317C8.521,20.365,8.078,18.389,8.022,16z M22.978,15h4.992c-0.087-2.194-0.736-4.239-1.813-6
	H21.84C22.479,10.636,22.922,12.612,22.978,15z M21.406,8h4.07c-1.903-2.527-4.736-4.303-7.997-4.823
	C18.707,4.093,20.262,5.619,21.406,8z M16,3.306V8h4.243C18.958,5.587,17.228,4.112,16,3.306z M13.529,3.175
	C10.265,3.694,7.428,5.471,5.523,8h4.071C10.744,5.615,12.302,4.09,13.529,3.175z M20.243,23H16v4.693
	C17.228,26.888,18.958,25.412,20.243,23z M10.761,8H15V3.311C13.776,4.12,12.046,5.593,10.761,8z M17.479,27.823
	c3.261-0.521,6.094-2.296,7.997-4.823h-4.07C20.261,25.381,18.707,26.907,17.479,27.823z M21.84,22h4.316
	c1.077-1.762,1.727-3.806,1.813-6h-4.992C22.922,18.388,22.479,20.364,21.84,22z M9.023,15H15V9h-4.718
	C9.58,10.62,9.085,12.593,9.023,15z M15,27.688V23h-4.239C12.046,25.407,13.776,26.88,15,27.688z M10.282,22H15v-6H9.023
	C9.085,18.407,9.58,20.381,10.282,22z M9.595,23H5.523c1.905,2.529,4.741,4.306,8.005,4.825C12.302,26.91,10.744,25.385,9.595,23z"
	/>
</svg>
